<?xml version="1.0" encoding="utf-8"?>
<!-- Generator: Adobe Illustrator 21.1.0, SVG Export Plug-In . SVG Version: 6.00 Build 0)  -->
<svg version="1.1" id="Layer_1" xmlns="http://www.w3.org/2000/svg" xmlns:xlink="http://www.w3.org/1999/xlink" x="0px" y="0px"
	 viewBox="0 0 200 200" style="enable-background:new 0 0 200 200;" xml:space="preserve">
<style type="text/css">
	.st0{fill:#FFFFFF;}
</style>
<g id="lGHQHW.tif">
	<g>
		<g>
			<path class="st0" d="M53.8,6c32.7,0,65.3,0,98,0c0,62.1,0,124.1,0,186.2c-32.7,0-65.3,0-98,0C53.8,130.1,53.8,68,53.8,6z
				 M135.3,143.9c-1-0.4-1.9-0.9-2.9-1.3c-4.6,4.9-8.7,10.2-13.8,14.5c-4.2,3.6-9.5,5.9-14.2,8.8c0.4-5.7-0.3-11.8,1.4-17.1
				c7.4-22.2,16.1-43.9,23-66.2c4.9-15.8-3-25-19.5-23.8c-24.4,1.7-39.8,17.4-52.9,36.1c-0.7,1,0,2.9,0.2,6.9
				c4.2-3.6,7.1-5.8,9.6-8.2c4.8-4.8,9.2-10.2,14.4-14.6c2-1.7,5.9-1.2,8.9-1.6c0.1,2.7,0.5,5.5,0.2,8.2c-0.2,1.9-1.4,3.6-2.1,5.4
				c-8.9,24.7-18.7,49.2-26.4,74.3c-5.4,17.6,5.1,27.3,23,22.6c20.7-5.4,36.5-18.3,48.9-35.4C134.7,150.3,134.6,146.8,135.3,143.9z
				 M123,47.6c12.7,0.1,22.7-9.3,23-21.6c0.2-10.7-7.4-18.3-18.3-18.4c-12.7,0-22.8,9.7-22.6,21.9C105.2,39.8,112.9,47.6,123,47.6z"
				/>
			<path d="M135.3,143.9c-0.7,2.9-0.6,6.3-2.3,8.5c-12.4,17.1-28.2,29.9-48.9,35.4c-17.9,4.7-28.4-5.1-23-22.6
				c7.7-25.1,17.5-49.6,26.4-74.3c0.7-1.8,1.9-3.6,2.1-5.4c0.3-2.7-0.1-5.4-0.2-8.2c-3,0.5-6.9,0-8.9,1.6
				c-5.2,4.4-9.5,9.8-14.4,14.6c-2.5,2.5-5.4,4.6-9.6,8.2c-0.2-4-0.9-5.9-0.2-6.9c13.1-18.6,28.5-34.3,52.9-36.1
				c16.6-1.2,24.4,8,19.5,23.8c-6.9,22.3-15.7,44-23,66.2c-1.8,5.3-1,11.4-1.4,17.1c4.8-2.9,10-5.2,14.2-8.8
				c5.1-4.3,9.2-9.7,13.8-14.5C133.4,143.1,134.3,143.5,135.3,143.9z"/>
			<path d="M123,47.6c-10.1-0.1-17.8-7.8-17.9-18c-0.2-12.2,9.9-21.9,22.6-21.9c10.9,0,18.5,7.7,18.3,18.4
				C145.7,38.3,135.7,47.7,123,47.6z"/>
		</g>
	</g>
</g>
</svg>
