<?xml version="1.0" encoding="UTF-8" standalone="no"?>
<!DOCTYPE svg PUBLIC "-//W3C//DTD SVG 1.1//EN"
"http://www.w3.org/Graphics/SVG/1.1/DTD/svg11.dtd">


<!-- Page 1 -->
<svg x="0" y="0" width="1650" height="1650" viewBox="0 0 1650 1650" version="1.1" xmlns="http://www.w3.org/2000/svg" xmlns:xlink="http://www.w3.org/1999/xlink"
style="display: block;margin-left: auto;margin-right: auto;">
<defs>
<clipPath id="c_1"><path d="M0,0H1650V1650H0Z" /></clipPath>
<style type="text/css"><![CDATA[

.g0_1{
fill: #764E24;
}
.g1_1{
fill: none;
stroke: #764E24;
stroke-width: 0.70888895;
stroke-linecap: butt;
stroke-linejoin: miter;
}
.g2_1{
fill: #623915;
}
.g3_1{
fill: none;
stroke: #623915;
stroke-width: 0.70888895;
stroke-linecap: butt;
stroke-linejoin: miter;
}
.g4_1{
fill: #A77E53;
}
.g5_1{
fill: none;
stroke: #A77E53;
stroke-width: 0.70888895;
stroke-linecap: butt;
stroke-linejoin: miter;
}
.g6_1{
fill: #8D6238;
}
.g7_1{
fill: none;
stroke: #8D6238;
stroke-width: 0.70888895;
stroke-linecap: butt;
stroke-linejoin: miter;
}
.g8_1{
fill: #40210F;
}
.g9_1{
fill: none;
stroke: #40210F;
stroke-width: 0.70888895;
stroke-linecap: butt;
stroke-linejoin: miter;
}
.g10_1{
fill: none;
stroke: #40210F;
stroke-width: 3.0555556;
stroke-linecap: butt;
stroke-linejoin: miter;
}
.g11_1{
fill: none;
stroke: #8D6238;
stroke-width: 3.0555556;
stroke-linecap: butt;
stroke-linejoin: miter;
}
.g12_1{
fill: none;
stroke: #040504;
stroke-width: 3.0555556;
stroke-linecap: butt;
stroke-linejoin: miter;
}

]]></style>

</defs>
<g clip-path="url(#c_1)">
<path d="M0,0
L0,1650
L1650,1650
L1650,0 Z " 
fill="#FFFFFF" stroke="none" />
<path d="M912.3,243.7c0,0,-134.4,-10,-205.7,13.2l156,31.6Z" class="g0_1" />
<path d="M912.3,243.7c0,0,-134.4,-10,-205.7,13.2l156,31.6l49.7,-44.8Z" class="g1_1" />
<path d="M1424.3,892.3c0,0,31.5,-169.2,-63.1,-341.7l-53.1,23.2l-11.6,157.6Z" class="g0_1" />
<path d="M1424.3,892.3c0,0,31.5,-169.2,-63.1,-341.7l-53.1,23.2l-11.6,157.6l127.8,160.9Z" class="g1_1" />
<path d="M1342.5,518.3c0,0,-91.4,-155.5,-255,-223.2l60.9,217.1l152.4,29.2L1342.5,523Z" class="g2_1" />
<path d="M1342.5,518.3c0,0,-91.4,-155.5,-255,-223.2l60.9,217.1l152.4,29.2L1342.5,523v-4.7Z" class="g3_1" />
<path d="M1110.1,916.4L1269.2,724.1l9.3,-147.7l-139,-35l-71.1,38.2l-34,66.7Z" class="g4_1" />
<path d="M1110.1,916.4L1269.2,724.1l9.3,-147.7l-139,-35l-71.1,38.2l-34,66.7l75.7,270.1Z" class="g5_1" />
<path d="M1039,550.6l65.8,-35.4L1050.2,290.9c0,0,-76.9,-38.5,-114.7,-32.3l-51.7,47.6L867,452.2Z" class="g6_1" />
<path d="M1039,550.6l65.8,-35.4L1050.2,290.9c0,0,-76.9,-38.5,-114.7,-32.3l-51.7,47.6L867,452.2l172,98.4Z" class="g7_1" />
<path d="M690.9,285.4L839.6,321L828.1,451L709.5,516.7L610.9,394.9Z" class="g8_1" />
<path d="M690.9,285.4L839.6,321L828.1,451L709.5,516.7L610.9,394.9l80,-109.5Z" class="g9_1" />
<path d="M680,257.5c0,0,-121.1,43.1,-180.8,102.8l97.9,6.6Z" class="g4_1" />
<path d="M680,257.5c0,0,-121.1,43.1,-180.8,102.8l97.9,6.6L680,257.5Z" class="g5_1" />
<path d="M719.6,559L844.4,477.4l187.2,98.9l-26.7,54.9L822.1,742.6L701.8,659.4Z" class="g0_1" />
<path d="M719.6,559L844.4,477.4l187.2,98.9l-26.7,54.9L822.1,742.6L701.8,659.4L719.6,559Z" class="g1_1" />
<path d="M496.8,389l80.9,6.2L684.1,540.9L667.6,646.3L565.7,703.6L427.9,675.7l-9,-134.8Z" class="g2_1" />
<path d="M467.1,378c0,0,-78,61.4,-121.1,141.1L389.1,539Z" class="g6_1" />
<path d="M467.1,378c0,0,-78,61.4,-121.1,141.1L389.1,539l78,-161Z" class="g7_1" />
<path d="M339.3,541.4c0,0,-39.8,39.3,-71.3,163.3l58.1,19.6l68,-31.7l-6.7,-127Z" class="g4_1" />
<path d="M339.3,541.4c0,0,-39.8,39.3,-71.3,163.3l58.1,19.6l68,-31.7l-6.7,-127L339.3,541.4Z" class="g5_1" />
<path d="M421.4,717.3l-62.1,35.6L314.7,918.7l129.7,109.6l108,-44.4l-14.8,-234Z" class="g4_1" />
<path d="M268,724.3l49.8,23.8L263,923.8c0,0,-18.2,-140.9,5,-199.5Z" class="g0_1" />
<path d="M268,724.3l49.8,23.8L263,923.8c0,0,-18.2,-140.9,5,-199.5Z" class="g1_1" />
<path d="M578.2,737.3l102.4,-59L806.2,759l57.4,207.8l-141.2,77.6l-130.3,-62Z" class="g8_1" />
<path d="M578.2,737.3l102.4,-59L806.2,759l57.4,207.8l-141.2,77.6l-130.3,-62L578.2,737.3Z" class="g9_1" />
<path d="M848.7,778l157.4,-99.4l71.2,254.3l-5.4,21.9l-54.8,43.9L898,966.5Z" class="g2_1" />
<path d="M848.7,778l157.4,-99.4l71.2,254.3l-5.4,21.9l-54.8,43.9L898,966.5L848.7,778Z" class="g3_1" />
<path d="M1141.3,956.7L1286.5,760.9l110.9,148l-6.9,44.8l-57.5,56.8Z" class="g6_1" />
<path d="M1141.3,956.7L1286.5,760.9l110.9,148l-6.9,44.8l-57.5,56.8L1141.3,956.7Z" class="g7_1" />
<path d="M1409.3,978.6c0,0,-31.5,101.2,-46.4,116.1L1351.3,1025Z" class="g2_1" />
<path d="M1409.3,978.6c0,0,-31.5,101.2,-46.4,116.1L1351.3,1025l58,-46.4Z" class="g3_1" />
<path d="M1342.5,1108.6c0,0,-60,93.6,-124.5,137h-24l-106.5,-78.7L1059,1040.7l58.5,-42L1329,1038Z" class="g8_1" />
<path d="M1342.5,1108.6c0,0,-60,93.6,-124.5,137h-24l-106.5,-78.7L1059,1040.7l58.5,-42L1329,1038l13.5,70.6Z" class="g9_1" />
<path d="M1182.1,1281.3l-6.7,19.9c0,0,-109.5,81.3,-245.5,96.2l19.9,-94.5l116.1,-119.5Z" class="g2_1" />
<path d="M1182.1,1281.3l-6.7,19.9c0,0,-109.5,81.3,-245.5,96.2l19.9,-94.5l116.1,-119.5l116.2,97.9Z" class="g3_1" />
<path d="M931,1282.2l100.6,-111.8L1003.3,1027L878.5,998.7l-126.2,78.7l-4.2,100.8Z" class="g6_1" />
<path d="M931,1282.2l100.6,-111.8L1003.3,1027L878.5,998.7l-126.2,78.7l-4.2,100.8l182.9,104Z" class="g7_1" />
<path d="M902.5,1406.6c0,0,-125.2,18.2,-228.1,-19.9l-11.9,-26.6l67.1,-157.6L921.8,1312Z" class="g8_1" />
<path d="M902.5,1406.6c0,0,-125.2,18.2,-228.1,-19.9l-11.9,-26.6l67.1,-157.6L921.8,1312l-19.3,94.6Z" class="g9_1" />
<path d="M473.7,1059.1l-8.3,37L515,1273.6l78.5,52.5h37.2l66.2,-157.5l5.5,-100.3L583.9,1008.1Z" class="g0_1" />
<path d="M370,1171c0,0,49.8,70.2,119.5,114.5L431.4,1135.8Z" class="g8_1" />
<path d="M370,1171c0,0,49.8,70.2,119.5,114.5L431.4,1135.8L370,1171Z" class="g10_1" />
<path d="M359.6,1138.5L421.3,1101l9.3,-36L279.3,955.4c0,0,26.2,126.9,80.3,183.1Z" class="g6_1" />
<path d="M359.6,1138.5L421.3,1101l9.3,-36L279.3,955.4c0,0,26.2,126.9,80.3,183.1Z" class="g11_1" />
<path d="M1504.7,819.3c0,366.8,-297.3,664.1,-664.1,664.1c-366.7,0,-664,-297.3,-664,-664.1c0,-366.7,297.3,-664.1,664,-664.1c366.8,0,664.1,297.4,664.1,664.1Z" class="g12_1" />

</g>
</svg>
