<?xml version="1.0" encoding="UTF-8" standalone="no"?>
<!DOCTYPE svg PUBLIC "-//W3C//DTD SVG 1.1//EN"
"http://www.w3.org/Graphics/SVG/1.1/DTD/svg11.dtd">


<!-- Page 1 -->
<svg x="0" y="0" width="1650" height="1650" viewBox="0 0 1650 1650" version="1.1" xmlns="http://www.w3.org/2000/svg" xmlns:xlink="http://www.w3.org/1999/xlink"
style="display: block;margin-left: auto;margin-right: auto;">
<defs>
<clipPath id="c_1"><path d="M0,0H1650V1650H0Z" /></clipPath>
<style type="text/css"><![CDATA[

.g0_1{
fill: #B3B3B3;
}
.g1_1{
fill: #7AC793;
}
.g2_1{
fill: #818282;
}
.g3_1{
fill: #C079AC;
}
.g4_1{
fill: none;
stroke: #050604;
stroke-width: 3.0555556;
stroke-linecap: butt;
stroke-linejoin: miter;
}

]]></style>

</defs>
<g clip-path="url(#c_1)">
<path d="M0,0
L0,1650
L1650,1650
L1650,0 Z " 
fill="#FFFFFF" stroke="none" />
<path d="M933.5,1375.1c-6.4,1.1,-12.9,2.4,-19.4,3.4c-18.3,2.7,-36.5,6.3,-55,7.6c-20.8,1.4,-41.9,1.2,-62.8,1c-51,-.2,-99.8,-12.9,-148,-27.7c-14.8,-4.5,-28.7,-12.2,-43,-18.3c-46.6,-19.8,-89,-46.8,-127.2,-79.8c-26.4,-23,-52,-47,-72.3,-75.9c-15.8,-22.6,-32.7,-44.6,-46.7,-68.2c-10.3,-17.4,-17.3,-36.8,-24.9,-55.6c-8.4,-20.8,-16.1,-41.9,-23.5,-63.1c-3.4,-10,-5.9,-20.4,-7.9,-30.8c-2.9,-14.7,-6.2,-29.5,-7.1,-44.5C293.8,889.9,291.8,856.4,292.5,823c.8,-35,8.2,-69.4,16.8,-103.4c9.7,-37.9,24,-74,41.8,-108.3c13.5,-26.1,31.2,-50.2,48.3,-74.2c21.4,-30.1,46.3,-57.3,75.4,-80.3c16.8,-13.3,32.8,-27.6,50.4,-39.7c18.2,-12.4,37,-24.2,56.9,-33.6C610,370.3,638.6,358,667.9,348.4c25.7,-8.4,52.4,-14.7,79.2,-17.8c30.8,-3.5,62.2,-2.6,93.4,-3.2c36.7,-.8,72.5,5.9,108.1,13.9c42.1,9.5,83,23.7,120.1,44.9c36.1,20.8,69.9,46,103,71.5c18.4,14.3,33.8,32.8,49.3,50.4c14,16.1,26.4,33.5,39.1,50.7c4.7,6.3,8.6,13.4,11.6,20.6c.9,2.3,-2.1,6.3,-3.1,9.1c-24,-26,-45.8,-51.9,-70,-75.3c-32.7,-31.7,-69.5,-58,-111.4,-76.8c-19,-8.4,-37.3,-18.9,-56.9,-25.7c-23.1,-7.9,-47,-14.7,-71.1,-18.5C924,386.6,888.4,382.3,852.8,380.9c-24.1,-1,-48.5,3.4,-72.7,6.1c-16.8,1.8,-33.6,3.8,-50.1,7.2c-16.1,3.4,-32,7.8,-47.6,13.1c-21.8,7.6,-43.6,15.7,-64.8,24.9c-14.8,6.5,-28.8,14.9,-42.8,22.9c-9,5.1,-17.5,11,-26,16.8c-35.5,24.5,-65.5,54.7,-93.1,87.8C423.3,598.5,399,642,380.8,688.8c-9.7,24.9,-15.3,51.5,-21.5,77.7c-9.6,40.4,-11.7,81.6,-7.8,123c2,21.5,2.7,43.6,8.4,64.2c9.5,34.8,21.2,69.1,34.6,102.6c7.6,19.2,19.6,36.9,30.8,54.5c14.9,23.2,29.9,46.5,46.8,68.2c14.3,18.5,31.4,35,47.5,52.2c25.2,27,54.9,48.6,86.5,67c26.8,15.5,55.6,28.3,84.5,39.6c24.4,9.6,49.9,16.8,75.6,22.2c23.1,4.9,47,6.9,70.7,8.3c22.4,1.3,45,.5,67.5,.1c6.8,-.1,13.5,-2.5,20.2,-2.6c3.1,-.1,6.3,2.8,9.5,4.3c-.2,1.7,-.4,3.3,-.6,5Z" class="g0_1" />
<path d="M1294.4,1032.2c0,-3,-.4,-6.1,.1,-9c4.1,-21.2,9.5,-42.2,12.3,-63.6c4.6,-36.5,5.6,-73.5,.3,-110C1301.4,810.7,1287,774,1273.4,737.2c-10.1,-27.3,-23.8,-52.3,-40.1,-76.1c-33.7,-49.4,-75.5,-90.9,-126.2,-122.2C1053.9,506,996,483.9,933.8,474.2c-29.3,-4.5,-58.7,-6.8,-88.2,-3.8c-23.2,2.4,-46.7,3.1,-69.4,7.6c-21.1,4.1,-41.9,10.8,-61.9,18.9c-23.4,9.6,-46.4,21,-68.5,33.5C631,538.9,617.4,550,604.3,561.2c-14.9,12.7,-29.5,26,-42.8,40.4C535.9,629.1,513.6,659,499,694.2c-7.9,19.2,-18.9,37.3,-25.6,56.8c-9,26,-16,52.8,-22.5,79.6c-8.4,35.1,-7.2,71.2,-6.1,107c.7,19.6,5.4,39.2,8.1,58.8c5.1,36,22.1,68.1,34.1,101.8c5.6,16,16.4,30.5,26.5,44.4c15.5,21.6,31.5,43,48.8,63c28,32.2,62.3,57.4,98.8,78.6c23.8,13.8,50.7,22.3,76.2,33.2c4.9,2.1,9.8,4.1,14.8,6.1c-.3,1.2,-.6,2.5,-1,3.7c-7.2,-1.3,-14.6,-2.1,-21.6,-4.3C678.8,1307.2,631,1285,588.2,1253.4C547.5,1223.3,511,1188.8,483,1146.2c-15,-22.7,-29.8,-45.6,-42.9,-69.4c-7.4,-13.5,-11.8,-28.8,-16.7,-43.5c-6.2,-19,-12.7,-38,-16.8,-57.5c-4.4,-21.1,-7.9,-42.8,-8.7,-64.4c-1.1,-31.5,-2.1,-63.4,1.8,-94.5c4,-32,10.3,-64.7,22.3,-94.3C442.5,672,463.3,620.7,501.5,579.8c21.5,-23,42.9,-46.3,66.5,-67.2c17.7,-15.8,37.5,-30,58.4,-41c26.3,-13.8,54.7,-23.8,82.3,-35.1c11.2,-4.6,22.5,-9.6,34.3,-12c30.1,-6.2,59.9,-13.6,91.2,-15.2c29.7,-1.5,59.2,-.6,88.4,3.3c26.1,3.6,51.9,10.8,77.4,18.2c21.4,6.2,42.8,13.5,63.1,22.8c37.3,17.1,70.7,40.4,102,67.1c27.9,23.8,53.7,49.7,74.6,79.4c23.6,33.2,45.7,67.8,57.3,107.7c4,13.6,10.9,26.2,14.8,39.8c4.6,16.1,8.8,32.6,10.6,49.1c3.2,28.4,5.8,56.9,6.1,85.3c.5,48.1,-7.5,95,-24.2,140.3c-1.4,3.9,-4.4,7.2,-6.6,10.8c-1.1,-.3,-2.2,-.6,-3.3,-.9Z" class="g1_1" />
<path d="M283.7,680.5c-6,.4,-9.7,-2.1,-7.1,-10.9c15.4,-52.1,38,-100.8,66,-147.3C366.8,482,396.5,446.5,429.2,413.2c23.9,-24.3,50.2,-45.9,78.9,-64.3c19.9,-12.7,41.2,-23.1,61.5,-35.1c29.7,-17.7,63.6,-24.9,94.8,-38.7c24.3,-10.8,50.1,-15.6,75.7,-20.3C761,251,782.4,249.3,803.6,249c31.2,-.3,62.6,-.4,93.6,2.6c63.7,6.3,124.1,24.6,182.4,51.5c31,14.3,60.1,31.5,88.6,49.6c17,10.9,32.8,24.2,47.4,38.2c23.7,22.5,46.7,45.8,68.5,70.1c13.4,15,24.8,32,35.9,48.9c14.3,22,28.2,44.3,40.6,67.4c7.4,13.9,11.7,29.5,16.9,44.5c6.4,18,14,35.6,18,54c7,31.5,12.6,63.4,16.9,95.3c4.6,33.9,5.7,68,1.4,102.1c-3.2,25.4,-5.2,51.1,-10.1,76.2c-4.1,20.9,-10.5,41.6,-18.2,61.5c-12.6,32.6,-26.6,64.7,-40.9,96.6c-5,11.3,-12.2,21.8,-18.9,32.2c-1.8,2.7,-5.9,3.9,-8.9,5.8c-.3,-3.8,-2,-8.2,-.7,-11.2c11,-25.1,23.7,-49.5,33.6,-75c9,-23.5,15.3,-48,22.4,-72.2c11.6,-39.3,14.1,-80,15.7,-120.5c1,-24.6,-2.3,-49.4,-4.7,-74.1c-2.2,-21.5,-5.7,-42.9,-8.9,-64.4c-.6,-3.9,-3,-7.6,-4.3,-11.5c-9.2,-28.1,-17.3,-56.6,-27.8,-84.3c-5.9,-15.4,-15.8,-29.4,-23.9,-44c-7.5,-13.5,-14.1,-27.8,-23,-40.4c-14.9,-21.1,-30.5,-41.9,-47.3,-61.6c-16.5,-19.2,-33.4,-38.7,-52.9,-54.6c-28.7,-23.3,-58.9,-45.1,-90.3,-64.5c-23.5,-14.4,-49.4,-25,-75.1,-35.4c-23.2,-9.5,-47.1,-18.2,-71.5,-24C917.7,298.2,876.5,291,834.6,292.1c-35.1,.8,-70.5,1.3,-105.2,6c-28.7,3.8,-57.3,10.7,-84.3,22.8c-19.5,8.8,-40.3,14.6,-60,23.1c-15.9,6.9,-31.2,15.3,-46.3,24c-16.7,9.6,-33.4,19.4,-49,30.6c-14.9,10.7,-28.2,23.5,-42.5,35C406.2,467,373.5,508,346.1,552.7c-19,30.8,-33.1,64.7,-49.1,97.4c-4.7,9.5,-8.5,19.3,-13.3,30.4Z" class="g2_1" />
<path d="M638.6,1222.4c4.1,1.1,8.4,1.8,12.3,3.4c29.4,12.1,58.2,26.4,88.4,36.2c44.6,14.5,90.8,20,137.8,12.8c21.6,-3.3,43.6,-5.6,64.8,-10.6c16,-3.7,30.9,-11.9,46.7,-16.8c23.4,-7.2,43.8,-20.1,64.6,-32.1c7.5,-4.3,13.6,-10.8,20.5,-16c36.5,-27.7,69.5,-60,91.3,-99.8c27.9,-50.9,52,-104.5,54.3,-164.5c.9,-23.8,3.7,-48,1,-71.5c-3.2,-27.1,-7.2,-54.6,-19.6,-79.9c-6.9,-14.2,-10.4,-30.1,-17.3,-44.4c-9,-18.6,-18.6,-37.1,-30.3,-54.1c-12.9,-18.8,-27.1,-37,-43.1,-53.2c-24,-24.4,-50.5,-46.2,-82.4,-60.5c-13.8,-6.2,-26.9,-14.1,-40.5,-20.9C982.2,548.1,976.6,547,971.6,545c-6.3,-2.5,-12.4,-5.4,-19.9,-8.7c8.2,-7.8,16,-8,23.6,-5.2c24.4,8.9,49,17.3,72.8,27.8c48.2,21.1,88.6,53.6,123.6,92.4c14.4,15.9,24.2,35.8,37.7,52.5c26.4,32.8,34.1,73.8,49.2,111.3c7.2,18,7.9,38.8,10.4,58.4c4.2,32,3.8,64.1,-1.4,95.8c-6.4,40.1,-17.4,78.8,-35.5,115.6c-12.3,25,-24.4,50.1,-42.9,70.8c-21.8,24.5,-44.4,48.5,-68.9,70.2c-15.3,13.6,-34.9,22.1,-52,33.7c-29.3,20,-64.3,26.1,-96.2,39.9c-10.2,4.4,-22.6,4.4,-34.1,5.3c-25.5,1.9,-51.1,4.7,-76.5,4.2c-24.1,-.5,-48.8,-2.1,-72,-7.8c-26,-6.5,-51.3,-16.7,-75.8,-27.9c-22.9,-10.5,-44.3,-24.1,-66.1,-36.9c-4.3,-2.5,-7.4,-7.1,-11,-10.8c.7,-1.1,1.4,-2.1,2,-3.2Z" class="g3_1" />
<path d="M564.2,720.3c-4.1,23.1,-8.7,42.5,-10.7,62.3c-2,19.3,-.3,39,-2,58.3c-1.9,21.5,3.3,41.7,7.9,62.1c2.7,12,6.7,23.8,11.5,35.2c5.7,13.6,11.9,27.2,19.5,39.8c12.1,20,24.2,40.1,38.7,58.3c22.4,28,49.6,51.3,80.8,69.2c17.3,9.9,35.4,19.1,54.2,25.3c25.1,8.3,51,15.1,77,19.3c19.3,3,39.5,-.2,59.1,1.1c21.4,1.5,41.7,-3.6,62,-8c11.7,-2.5,23.5,-6,34,-11.3c24.6,-12.3,48.5,-25.9,72.7,-38.9c2.5,-1.3,5,-2.8,7.6,-3.5c3.8,-1,7.7,-1.3,11.6,-1.9c-1.1,4,-1.4,8.5,-3.5,12c-12.9,21.6,-33.4,35.3,-52.6,50.6c-21.1,17,-44.4,30,-69.2,40.5c-25.5,10.8,-52.2,17.7,-79.7,21.8c-41.2,6.3,-81.7,4.4,-121.6,-7.7c-22.6,-6.9,-46.4,-11.7,-67.2,-22.2c-40,-20.3,-76,-46.5,-105.6,-81.3c-24.1,-28.2,-44.9,-58.2,-57.5,-92.9C519.1,975.3,509.3,941.6,508.7,905.1c-.4,-23.5,-.7,-47.1,3.9,-69.5c6.2,-30.1,17.1,-59.4,27.1,-88.6c2.7,-7.9,9.1,-14.6,14.4,-21.5c1.6,-2.1,5.2,-2.7,10.1,-5.2Z" class="g0_1" />
<path d="M1116.5,812.9c-.7,5.1,-1.3,11.3,-2.6,17.4c-.5,2.2,-2.9,3.9,-4.5,5.9c-1.3,-1.9,-3.3,-3.5,-3.9,-5.5c-4.2,-13.8,-7.1,-28.1,-12.3,-41.5c-5.7,-14.7,-13.1,-28.8,-20.3,-42.8c-4.4,-8.5,-10.1,-16.3,-14.9,-24.6c-10.6,-18.6,-28.1,-30.3,-43.2,-44.6C995.4,658.8,973,645.3,948.8,634.7C913.8,619.4,877.3,611,838.7,611.5c-31.7,.4,-62.3,6.1,-91.8,16.5c-15.4,5.4,-29.5,14.6,-43.9,22.6c-11.4,6.4,-23.2,12.5,-33.2,20.7c-11.3,9.2,-22.1,19.7,-31,31.3c-14.4,18.7,-26.9,38.9,-40.5,58.3c-1.5,2.1,-4.5,3.2,-6.8,4.7c-1.1,-2.6,-3.1,-5.2,-3,-7.8c.9,-22.4,12,-41.5,20.6,-61.5c12.3,-28.5,31.1,-52.8,53.3,-73.1C678.9,608,696,591.6,718.7,583.6c17.6,-6.2,33.6,-17.6,51.4,-22.3c35,-9.1,70.6,-15.2,107.5,-9.2c26.6,4.3,52.8,9.5,77.5,20.5c25.1,11.3,50,23.5,69.7,42.7c18.1,17.4,35.6,36.2,49.3,57.1c27.5,41.9,41,89,42.4,140.5Z" class="g2_1" />
<path d="M792.5,1077.4c6,.2,12.1,.7,18.1,.7c22.7,.2,45.5,2,68,-.2c17.5,-1.7,34.6,-8.1,50,-17.6c14.1,-8.7,29.3,-16,42.1,-26.2c32,-25.8,56.3,-57.6,66.3,-98.1c5.1,-20.6,9.9,-41.9,10.1,-62.9c.3,-31.3,-5.4,-62.4,-22,-90c-8.6,-14.6,-18.2,-28.5,-27.1,-42.9c-1.1,-1.6,-1,-4,-1.4,-6.1c2,.2,4.6,-.4,5.9,.6c9.7,7.6,19.9,14.8,28.4,23.6c9.1,9.3,17.9,19.5,24.3,30.8c9.7,16.9,18.6,34.5,25.2,52.8c8.9,24.6,9.7,50.7,6.8,76.7c-7,62.8,-36.6,112.1,-88,148.9c-24.3,17.5,-51.2,29,-80.1,33.9c-40.9,6.9,-81.3,2.9,-119.5,-15.3c-3,-1.4,-5.5,-3.6,-8.3,-5.4c.4,-1.1,.8,-2.2,1.2,-3.3Z" class="g1_1" />
<path d="M691.5,758.6c-33.3,67.2,-29.9,130.9,21.7,186.5c51.2,55.2,114.3,64.1,183.8,37.5c.6,.8,1.1,1.6,1.7,2.5c-2.8,3.3,-4.9,7.7,-8.4,9.7c-29.7,17.5,-61.1,28.3,-96.5,26.3c-35.3,-2,-66.9,-14.2,-93.1,-36.7c-31.5,-27,-51.6,-61.3,-55.8,-104.3c-3.7,-36.8,4.6,-69.8,24.2,-100.4c5.2,-8.2,12.4,-15.1,18.6,-22.7Z" class="g3_1" />
<path d="M934,902.2c30.2,-56,28.7,-110.8,-12.5,-158.8c-40.6,-47.5,-94,-58.3,-154,-38.9c29.2,-23.8,62.3,-32.7,97.9,-26c56.1,10.5,94,44.6,107.9,99.7c12,47.4,-1,90.1,-39.3,124Z" class="g0_1" />
<path d="M911.5,894.2c-9.6,22,-46.3,43.3,-78.7,40.6c-41.4,-3.6,-71.4,-27.5,-84.3,-62.5c-9.1,-24.9,-7.2,-49.3,6.6,-72.7c-6.1,44,7.1,79.7,45.6,102.8c38,22.8,75.3,17.8,110.8,-8.2Z" class="g2_1" />
<path d="M857.4,877c16.8,-29.6,13.9,-57.8,-7.2,-82.7C829.7,770,802.4,765.3,771.6,775.5c11.6,-14.1,39.3,-19.5,58.8,-12.4c32.2,11.7,48.3,36,49.1,61.2c.9,27.5,-8.3,47.8,-22.1,52.7Z" class="g3_1" />
<path d="M1496.2,825c0,367.3,-297.8,665.1,-665.1,665.1C463.8,1490.1,166,1192.3,166,825C166,457.7,463.8,159.9,831.1,159.9c367.3,0,665.1,297.8,665.1,665.1Z" class="g4_1" />

</g>
</svg>
