<?xml version="1.0" encoding="UTF-8" standalone="no"?>
<!DOCTYPE svg PUBLIC "-//W3C//DTD SVG 1.1//EN"
"http://www.w3.org/Graphics/SVG/1.1/DTD/svg11.dtd">


<!-- Page 1 -->
<svg x="0" y="0" width="72" height="72" viewBox="0 0 1650 1650" version="1.1" xmlns="http://www.w3.org/2000/svg" xmlns:xlink="http://www.w3.org/1999/xlink"
style="display: block;margin-left: auto;margin-right: auto;">
<defs>
<clipPath id="c_1"><path d="M0,0H1650V1650H0Z" /></clipPath>
<style type="text/css"><![CDATA[

.g0_1{
fill: none;
stroke: #050604;
stroke-width: 3.0555556;
stroke-linecap: butt;
stroke-linejoin: miter;
}
.g1_1{
fill: #4055A0;
}
.g2_1{
fill: #3B70B6;
}
.g3_1{
fill: #E6E037;
}
.g4_1{
fill: #60964D;
}
.g5_1{
fill: #EFEA3C;
}

]]></style>

</defs>
<g clip-path="url(#c_1)">
<path d="M0,0
L0,1650
L1650,1650
L1650,0 Z " 
fill="#FFFFFF" stroke="none" />
<path d="M1498.3,823c0,367.7,-298,665.7,-665.7,665.7C465,1488.7,167,1190.7,167,823C167,455.4,465,157.4,832.6,157.4c367.7,0,665.7,298,665.7,665.6Z" class="g0_1" />
<path d="M291.6,720.4c0,6.4,-5.2,11.6,-11.7,11.6c-6.4,0,-11.6,-5.2,-11.6,-11.6c0,-6.4,5.2,-11.7,11.6,-11.7c6.5,0,11.7,5.3,11.7,11.7Z" class="g1_1" />
<path d="M295.2,800.2c0,10.9,-8.9,19.7,-19.8,19.7c-10.9,0,-19.7,-8.8,-19.7,-19.7c0,-10.9,8.8,-19.7,19.7,-19.7c10.9,0,19.8,8.8,19.8,19.7Z" class="g2_1" />
<path d="M524.7,373.4c0,10.9,-8.9,19.8,-19.8,19.8c-10.9,0,-19.7,-8.9,-19.7,-19.8c0,-10.9,8.8,-19.7,19.7,-19.7c10.9,0,19.8,8.8,19.8,19.7Z" class="g3_1" />
<path d="M598.2,430.8c0,10.9,-8.8,19.7,-19.7,19.7c-10.9,0,-19.7,-8.8,-19.7,-19.7c0,-10.9,8.8,-19.7,19.7,-19.7c10.9,0,19.7,8.8,19.7,19.7Z" class="g2_1" />
<path d="M634.1,599.4c0,10.8,-8.9,19.7,-19.8,19.7c-10.9,0,-19.7,-8.9,-19.7,-19.7c0,-10.9,8.8,-19.8,19.7,-19.8c10.9,0,19.8,8.9,19.8,19.8Z" class="g1_1" />
<path d="M350.7,577.8c0,10.9,-8.8,19.8,-19.7,19.8c-10.9,0,-19.7,-8.9,-19.7,-19.8c0,-10.9,8.8,-19.7,19.7,-19.7c10.9,0,19.7,8.8,19.7,19.7Z" class="g2_1" />
<path d="M406.3,558.1c0,10.9,-8.8,19.7,-19.7,19.7c-10.9,0,-19.7,-8.8,-19.7,-19.7c0,-10.9,8.8,-19.7,19.7,-19.7c10.9,0,19.7,8.8,19.7,19.7Z" class="g1_1" />
<path d="M1270.6,1119.4c0,10.8,-8.8,19.7,-19.7,19.7c-10.9,0,-19.7,-8.9,-19.7,-19.7c0,-10.9,8.8,-19.8,19.7,-19.8c10.9,0,19.7,8.9,19.7,19.8Z" class="g4_1" />
<path d="M1197.1,1027.9c0,10.9,-8.8,19.7,-19.7,19.7c-10.9,0,-19.7,-8.8,-19.7,-19.7c0,-10.9,8.8,-19.7,19.7,-19.7c10.9,0,19.7,8.8,19.7,19.7Z" class="g3_1" />
<path d="M1270.6,796.6c0,10.9,-8.8,19.7,-19.7,19.7c-10.9,0,-19.7,-8.8,-19.7,-19.7c0,-10.9,8.8,-19.7,19.7,-19.7c10.9,0,19.7,8.8,19.7,19.7Z" class="g2_1" />
<path d="M1177.4,545.6c0,10.9,-8.9,19.7,-19.8,19.7c-10.9,0,-19.7,-8.8,-19.7,-19.7c0,-10.9,8.8,-19.8,19.7,-19.8c10.9,0,19.8,8.9,19.8,19.8Z" class="g3_1" />
<path d="M1184.5,703.4c0,10.8,-8.8,19.7,-19.7,19.7c-10.9,0,-19.7,-8.9,-19.7,-19.7c0,-10.9,8.8,-19.8,19.7,-19.8c10.9,0,19.7,8.9,19.7,19.8Z" class="g2_1" />
<path d="M981.9,780.5c0,10.9,-8.8,19.7,-19.7,19.7c-10.9,0,-19.7,-8.8,-19.7,-19.7c0,-10.9,8.8,-19.8,19.7,-19.8c10.9,0,19.7,8.9,19.7,19.8Z" class="g2_1" />
<path d="M1263.4,1045.8c0,10.9,-8.8,19.8,-19.7,19.8c-10.9,0,-19.7,-8.9,-19.7,-19.8c0,-10.9,8.8,-19.7,19.7,-19.7c10.9,0,19.7,8.8,19.7,19.7Z" class="g2_1" />
<path d="M1155.8,760.7c0,10.9,-8.8,19.8,-19.7,19.8c-10.9,0,-19.7,-8.9,-19.7,-19.8c0,-10.9,8.8,-19.7,19.7,-19.7c10.9,0,19.7,8.8,19.7,19.7Z" class="g1_1" />
<path d="M825.9,393.1c0,10.9,-8.8,19.8,-19.7,19.8c-10.9,0,-19.7,-8.9,-19.7,-19.8c0,-10.8,8.8,-19.7,19.7,-19.7c10.9,0,19.7,8.9,19.7,19.7Z" class="g4_1" />
<path d="M827,330.3c0,10.9,-8.9,19.7,-19.7,19.7c-10.9,0,-19.8,-8.8,-19.8,-19.7c0,-10.9,8.9,-19.7,19.8,-19.7c10.8,0,19.7,8.8,19.7,19.7Z" class="g3_1" />
<path d="M1304.7,484.6c0,10.9,-8.9,19.7,-19.8,19.7c-10.8,0,-19.7,-8.8,-19.7,-19.7c0,-10.9,8.9,-19.7,19.7,-19.7c10.9,0,19.8,8.8,19.8,19.7Z" class="g4_1" />
<path d="M1157.6,466.7c0,10.9,-8.8,19.7,-19.7,19.7c-10.9,0,-19.7,-8.8,-19.7,-19.7c0,-10.9,8.8,-19.8,19.7,-19.8c10.9,0,19.7,8.9,19.7,19.8Z" class="g1_1" />
<path d="M1297.5,628c0,10.9,-8.8,19.8,-19.7,19.8c-10.9,0,-19.7,-8.9,-19.7,-19.8c0,-10.8,8.8,-19.7,19.7,-19.7c10.9,0,19.7,8.9,19.7,19.7Z" class="g4_1" />
<path d="M795.4,867.4c0,50,-40.5,90.6,-90.5,90.6c-50,0,-90.6,-40.6,-90.6,-90.6c0,-50,40.6,-90.5,90.6,-90.5c50,0,90.5,40.5,90.5,90.5Z" class="g4_1" />
<path d="M817,1187.5c0,32.7,-26.5,59.2,-59.2,59.2c-32.7,0,-59.2,-26.5,-59.2,-59.2c0,-32.7,26.5,-59.2,59.2,-59.2c32.7,0,59.2,26.5,59.2,59.2Z" class="g2_1" />
<path d="M1109.2,538.4c0,43.6,-35.3,78.9,-78.9,78.9c-43.5,0,-78.9,-35.3,-78.9,-78.9c0,-43.6,35.4,-78.9,78.9,-78.9c43.6,0,78.9,35.3,78.9,78.9Z" class="g2_1" />
<path d="M1120,1296c0,36.1,-29.3,65.4,-65.5,65.4c-36.1,0,-65.4,-29.3,-65.4,-65.4c0,-36.2,29.3,-65.5,65.4,-65.5c36.2,0,65.5,29.3,65.5,65.5Z" class="g5_1" />
<path d="M485.2,776c0,25.2,-20.4,45.7,-45.7,45.7c-25.2,0,-45.7,-20.5,-45.7,-45.7c0,-25.3,20.5,-45.7,45.7,-45.7c25.3,0,45.7,20.4,45.7,45.7Z" class="g4_1" />
<path d="M551.6,544.7c0,25.2,-20.5,45.7,-45.8,45.7c-25.2,0,-45.7,-20.5,-45.7,-45.7c0,-25.3,20.5,-45.8,45.7,-45.8c25.3,0,45.8,20.5,45.8,45.8Z" class="g5_1" />
<path d="M659.2,686.3c0,25.3,-20.5,45.7,-45.8,45.7c-25.2,0,-45.7,-20.4,-45.7,-45.7c0,-25.2,20.5,-45.7,45.7,-45.7c25.3,0,45.8,20.5,45.8,45.7Z" class="g4_1" />
<path d="M1216.8,854.9c0,25.2,-20.5,45.7,-45.7,45.7c-25.3,0,-45.7,-20.5,-45.7,-45.7c0,-25.3,20.4,-45.7,45.7,-45.7c25.2,0,45.7,20.4,45.7,45.7Z" class="g4_1" />
<path d="M1172,1086.2c0,25.2,-20.5,45.7,-45.7,45.7c-25.3,0,-45.8,-20.5,-45.8,-45.7c0,-25.3,20.5,-45.7,45.8,-45.7c25.2,0,45.7,20.4,45.7,45.7Z" class="g4_1" />
<path d="M635.8,1303.1c0,25.3,-20.4,45.8,-45.7,45.8c-25.2,0,-45.7,-20.5,-45.7,-45.8c0,-25.2,20.5,-45.7,45.7,-45.7c25.3,0,45.7,20.5,45.7,45.7Z" class="g5_1" />
<path d="M408.1,1073.6c0,25.3,-20.5,45.8,-45.7,45.8c-25.2,0,-45.7,-20.5,-45.7,-45.8c0,-25.2,20.5,-45.7,45.7,-45.7c25.2,0,45.7,20.5,45.7,45.7Z" class="g2_1" />
<path d="M915.6,1001.9c0,25.3,-20.5,45.7,-45.8,45.7c-25.2,0,-45.7,-20.4,-45.7,-45.7c0,-25.2,20.5,-45.7,45.7,-45.7c25.3,0,45.8,20.5,45.8,45.7Z" class="g2_1" />
<path d="M675.3,1152.5c0,25.3,-20.5,45.7,-45.7,45.7c-25.3,0,-45.7,-20.4,-45.7,-45.7c0,-25.2,20.4,-45.7,45.7,-45.7c25.2,0,45.7,20.5,45.7,45.7Z" class="g4_1" />
<path d="M1068,702.5c0,25.2,-20.5,45.7,-45.7,45.7c-25.3,0,-45.8,-20.5,-45.8,-45.7c0,-25.3,20.5,-45.8,45.8,-45.8c25.2,0,45.7,20.5,45.7,45.8Z" class="g4_1" />
<path d="M915.6,776c0,25.2,-20.5,45.7,-45.8,45.7c-25.2,0,-45.7,-20.5,-45.7,-45.7c0,-25.3,20.5,-45.7,45.7,-45.7c25.3,0,45.8,20.4,45.8,45.7Z" class="g4_1" />
<path d="M678.9,454.1c0,18.8,-15.3,34.1,-34.1,34.1c-18.8,0,-34,-15.3,-34,-34.1c0,-18.8,15.2,-34.1,34,-34.1c18.8,0,34.1,15.3,34.1,34.1Z" class="g5_1" />
<path d="M739.8,640.6c0,18.8,-15.2,34.1,-34,34.1c-18.8,0,-34.1,-15.3,-34.1,-34.1c0,-18.8,15.3,-34.1,34.1,-34.1c18.8,0,34,15.3,34,34.1Z" class="g2_1" />
<path d="M1010.6,900.6c0,18.8,-15.3,34.1,-34.1,34.1c-18.8,0,-34,-15.3,-34,-34.1c0,-18.8,15.2,-34.1,34,-34.1c18.8,0,34.1,15.3,34.1,34.1Z" class="g4_1" />
<path d="M625.1,362.7c0,18.8,-15.3,34,-34.1,34c-18.8,0,-34.1,-15.2,-34.1,-34c0,-18.9,15.3,-34.1,34.1,-34.1c18.8,0,34.1,15.2,34.1,34.1Z" class="g4_1" />
<path d="M1089.5,821.7c0,18.8,-15.3,34.1,-34.1,34.1c-18.8,0,-34,-15.3,-34,-34.1c0,-18.8,15.2,-34.1,34,-34.1c18.8,0,34.1,15.3,34.1,34.1Z" class="g3_1" />
<path d="M565.9,1033.3c0,18.8,-15.3,34,-34.1,34c-18.8,0,-34,-15.2,-34,-34c0,-18.8,15.2,-34.1,34,-34.1c18.8,0,34.1,15.3,34.1,34.1Z" class="g4_1" />
<path d="M978.3,1361.4c0,18.8,-15.2,34.1,-34,34.1c-18.9,0,-34.1,-15.3,-34.1,-34.1c0,-18.8,15.2,-34,34.1,-34c18.8,0,34,15.2,34,34Z" class="g2_1" />
<path d="M925,330.4c0,18.8,-15.3,34.1,-34.1,34.1c-18.8,0,-34.1,-15.3,-34.1,-34.1c0,-18.8,15.3,-34.1,34.1,-34.1c18.8,0,34.1,15.3,34.1,34.1Z" class="g4_1" />
<path d="M1372.8,793c0,18.8,-15.2,34.1,-34,34.1c-18.9,0,-34.1,-15.3,-34.1,-34.1c0,-18.8,15.2,-34.1,34.1,-34.1c18.8,0,34,15.3,34,34.1Z" class="g2_1" />
<path d="M1369.2,1069.1c0,18.9,-15.2,34.1,-34,34.1c-18.9,0,-34.1,-15.2,-34.1,-34.1c0,-18.8,15.2,-34,34.1,-34c18.8,0,34,15.2,34,34Z" class="g3_1" />
<path d="M420.7,692.6c0,18.8,-15.3,34.1,-34.1,34.1c-18.8,0,-34.1,-15.3,-34.1,-34.1c0,-18.8,15.3,-34.1,34.1,-34.1c18.8,0,34.1,15.3,34.1,34.1Z" class="g2_1" />
<path d="M1114.6,400.3c0,18.8,-15.3,34.1,-34.1,34.1c-18.8,0,-34,-15.3,-34,-34.1c0,-18.8,15.2,-34,34,-34c18.8,0,34.1,15.2,34.1,34Z" class="g3_1" />
<path d="M1304.7,708.7c0,18.9,-15.3,34.1,-34.1,34.1c-18.8,0,-34.1,-15.2,-34.1,-34.1c0,-18.8,15.3,-34,34.1,-34c18.8,0,34.1,15.2,34.1,34Z" class="g2_1" />
<path d="M558.7,1126.5c0,18.9,-15.2,34.1,-34,34.1c-18.8,0,-34.1,-15.2,-34.1,-34.1c0,-18.8,15.3,-34,34.1,-34c18.8,0,34,15.2,34,34Z" class="g2_1" />
<path d="M773.9,1366.8c0,18.8,-15.2,34.1,-34,34.1c-18.9,0,-34.1,-15.3,-34.1,-34.1c0,-18.8,15.2,-34.1,34.1,-34.1c18.8,0,34,15.3,34,34.1Z" class="g2_1" />
<path d="M1353.1,565.3c0,18.8,-15.3,34,-34.1,34c-18.8,0,-34.1,-15.2,-34.1,-34c0,-18.8,15.3,-34.1,34.1,-34.1c18.8,0,34.1,15.3,34.1,34.1Z" class="g3_1" />
<path d="M838.5,473.8c0,18.9,-15.3,34.1,-34.1,34.1c-18.8,0,-34.1,-15.2,-34.1,-34.1c0,-18.8,15.3,-34,34.1,-34c18.8,0,34.1,15.2,34.1,34Z" class="g4_1" />
<path d="M438.6,490c0,18.8,-15.3,34,-34.1,34c-18.8,0,-34,-15.2,-34,-34c0,-18.8,15.2,-34.1,34,-34.1c18.8,0,34.1,15.3,34.1,34.1Z" class="g2_1" />
<path d="M519.3,663.9c0,18.8,-15.3,34.1,-34.1,34.1c-18.8,0,-34,-15.3,-34,-34.1c0,-18.8,15.2,-34.1,34,-34.1c18.8,0,34.1,15.3,34.1,34.1Z" class="g5_1" />
<path d="M1386,880.8c-4.9,18.2,-23.7,28.9,-41.8,24c-18.2,-4.9,-28.9,-23.6,-24,-41.8c4.9,-18.2,23.6,-28.9,41.8,-24c18.2,4.9,28.9,23.7,24,41.8Z" class="g4_1" />
<path d="M996.3,1045.8c0,10.9,-8.9,19.8,-19.8,19.8c-10.9,0,-19.7,-8.9,-19.7,-19.8c0,-10.9,8.8,-19.7,19.7,-19.7c10.9,0,19.8,8.8,19.8,19.7Z" class="g3_1" />
<path d="M944.3,949c0,10.9,-8.9,19.7,-19.8,19.7c-10.9,0,-19.7,-8.8,-19.7,-19.7c0,-10.9,8.8,-19.7,19.7,-19.7c10.9,0,19.8,8.8,19.8,19.7Z" class="g4_1" />
<path d="M793.6,1065.6c0,10.9,-8.8,19.7,-19.7,19.7c-10.9,0,-19.7,-8.8,-19.7,-19.7c0,-10.9,8.8,-19.8,19.7,-19.8c10.9,0,19.7,8.9,19.7,19.8Z" class="g2_1" />
<path d="M571.3,1209c0,10.9,-8.8,19.7,-19.7,19.7c-10.9,0,-19.7,-8.8,-19.7,-19.7c0,-10.9,8.8,-19.7,19.7,-19.7c10.9,0,19.7,8.8,19.7,19.7Z" class="g1_1" />
<path d="M1075.2,1013.6c0,10.9,-8.9,19.7,-19.8,19.7c-10.9,0,-19.7,-8.8,-19.7,-19.7c0,-10.9,8.8,-19.8,19.7,-19.8c10.9,0,19.8,8.9,19.8,19.8Z" class="g4_1" />
<path d="M1177.4,1210.8c0,10.9,-8.9,19.7,-19.8,19.7c-10.9,0,-19.7,-8.8,-19.7,-19.7c0,-10.9,8.8,-19.7,19.7,-19.7c10.9,0,19.8,8.8,19.8,19.7Z" class="g4_1" />
<path d="M1059,936.5c0,10.9,-8.8,19.7,-19.7,19.7c-10.9,0,-19.7,-8.8,-19.7,-19.7c0,-10.9,8.8,-19.8,19.7,-19.8c10.9,0,19.7,8.9,19.7,19.8Z" class="g2_1" />
<path d="M1137.9,988.5c0,10.9,-8.8,19.7,-19.7,19.7c-10.9,0,-19.7,-8.8,-19.7,-19.7c0,-10.9,8.8,-19.8,19.7,-19.8c10.9,0,19.7,8.9,19.7,19.8Z" class="g2_1" />
<path d="M1121.8,906c0,10.9,-8.9,19.7,-19.8,19.7c-10.8,0,-19.7,-8.8,-19.7,-19.7c0,-10.9,8.9,-19.8,19.7,-19.8c10.9,0,19.8,8.9,19.8,19.8Z" class="g1_1" />
<path d="M630.5,1065.6c0,10.9,-8.9,19.7,-19.8,19.7c-10.9,0,-19.7,-8.8,-19.7,-19.7c0,-10.9,8.8,-19.8,19.7,-19.8c10.9,0,19.8,8.9,19.8,19.8Z" class="g2_1" />
<path d="M680.7,999.2c0,10.9,-8.9,19.8,-19.8,19.8c-10.9,0,-19.7,-8.9,-19.7,-19.8c0,-10.9,8.8,-19.7,19.7,-19.7c10.9,0,19.8,8.8,19.8,19.7Z" class="g2_1" />
<path d="M894.1,1230.5c0,10.9,-8.9,19.8,-19.8,19.8c-10.9,0,-19.7,-8.9,-19.7,-19.8c0,-10.9,8.8,-19.7,19.7,-19.7c10.9,0,19.8,8.8,19.8,19.7Z" class="g4_1" />
<path d="M614.3,792.1c0,6.4,-5.2,11.7,-11.6,11.7c-6.5,0,-11.7,-5.3,-11.7,-11.7c0,-6.4,5.2,-11.6,11.7,-11.6c6.4,0,11.6,5.2,11.6,11.6Z" class="g2_1" />
<path d="M386.6,984c0,6.4,-5.2,11.6,-11.7,11.6c-6.4,0,-11.6,-5.2,-11.6,-11.6c0,-6.4,5.2,-11.7,11.6,-11.7c6.5,0,11.7,5.3,11.7,11.7Z" class="g4_1" />
<path d="M357.9,899.7c0,6.4,-5.2,11.7,-11.6,11.7c-6.5,0,-11.7,-5.3,-11.7,-11.7c0,-6.4,5.2,-11.7,11.7,-11.7c6.4,0,11.6,5.3,11.6,11.7Z" class="g5_1" />
<path d="M1125.4,329.5c0,6.4,-5.2,11.6,-11.7,11.6c-6.4,0,-11.7,-5.2,-11.7,-11.6c0,-6.4,5.3,-11.7,11.7,-11.7c6.5,0,11.7,5.3,11.7,11.7Z" class="g1_1" />
<path d="M1030.3,431.7c0,6.4,-5.2,11.7,-11.6,11.7c-6.5,0,-11.7,-5.3,-11.7,-11.7c0,-6.4,5.2,-11.7,11.7,-11.7c6.4,0,11.6,5.3,11.6,11.7Z" class="g2_1" />
<path d="M1234.7,404.8c0,6.4,-5.2,11.7,-11.6,11.7c-6.4,0,-11.7,-5.3,-11.7,-11.7c0,-6.4,5.3,-11.7,11.7,-11.7c6.4,0,11.6,5.3,11.6,11.7Z" class="g2_1" />
<path d="M1066.2,297.2c0,6.4,-5.2,11.7,-11.7,11.7c-6.4,0,-11.6,-5.3,-11.6,-11.7c0,-6.4,5.2,-11.6,11.6,-11.6c6.5,0,11.7,5.2,11.7,11.6Z" class="g4_1" />
<path d="M415.3,605.6c0,6.5,-5.2,11.7,-11.7,11.7c-6.4,0,-11.6,-5.2,-11.6,-11.7c0,-6.4,5.2,-11.6,11.6,-11.6c6.5,0,11.7,5.2,11.7,11.6Z" class="g2_1" />
<path d="M322.1,657.6c0,6.5,-5.3,11.7,-11.7,11.7c-6.4,0,-11.7,-5.2,-11.7,-11.7c0,-6.4,5.3,-11.6,11.7,-11.6c6.4,0,11.7,5.2,11.7,11.6Z" class="g5_1" />
<path d="M949.6,697.1c0,6.4,-5.2,11.6,-11.6,11.6c-6.4,0,-11.7,-5.2,-11.7,-11.6c0,-6.4,5.3,-11.7,11.7,-11.7c6.4,0,11.6,5.3,11.6,11.7Z" class="g2_1" />
<path d="M903,537.5c0,6.4,-5.2,11.6,-11.6,11.6c-6.5,0,-11.7,-5.2,-11.7,-11.6c0,-6.4,5.2,-11.7,11.7,-11.7c6.4,0,11.6,5.3,11.6,11.7Z" class="g4_1" />
<path d="M903,257.8c0,6.4,-5.2,11.6,-11.6,11.6c-6.5,0,-11.7,-5.2,-11.7,-11.6c0,-6.5,5.2,-11.7,11.7,-11.7c6.4,0,11.6,5.2,11.6,11.7Z" class="g4_1" />
<path d="M906.6,394c0,6.5,-5.2,11.7,-11.7,11.7c-6.4,0,-11.6,-5.2,-11.6,-11.7c0,-6.4,5.2,-11.6,11.6,-11.6c6.5,0,11.7,5.2,11.7,11.6Z" class="g1_1" />
<path d="M786.5,272.1c0,6.4,-5.2,11.7,-11.7,11.7c-6.4,0,-11.6,-5.3,-11.6,-11.7c0,-6.4,5.2,-11.6,11.6,-11.6c6.5,0,11.7,5.2,11.7,11.6Z" class="g3_1" />
<path d="M635.8,295.4c0,6.4,-5.2,11.7,-11.6,11.7c-6.4,0,-11.7,-5.3,-11.7,-11.7c0,-6.4,5.3,-11.6,11.7,-11.6c6.4,0,11.6,5.2,11.6,11.6Z" class="g2_1" />
<path d="M705,400.4c0,6.4,-5.2,11.7,-11.7,11.7c-6.4,0,-11.6,-5.3,-11.6,-11.7c0,-6.4,5.2,-11.6,11.6,-11.6c6.5,0,11.7,5.2,11.7,11.6Z" class="g2_1" />
<path d="M705.8,282.9c0,6.4,-5.3,11.6,-11.7,11.6c-6.4,0,-11.6,-5.2,-11.6,-11.6c0,-6.5,5.2,-11.7,11.6,-11.7c6.4,0,11.7,5.2,11.7,11.7Z" class="g2_1" />
<path d="M332.8,713.2c0,6.4,-5.2,11.7,-11.6,11.7c-6.5,0,-11.7,-5.3,-11.7,-11.7c0,-6.4,5.2,-11.6,11.7,-11.6c6.4,0,11.6,5.2,11.6,11.6Z" class="g2_1" />
<path d="M542.6,725.8c0,6.4,-5.2,11.6,-11.7,11.6c-6.4,0,-11.6,-5.2,-11.6,-11.6c0,-6.5,5.2,-11.7,11.6,-11.7c6.5,0,11.7,5.2,11.7,11.7Z" class="g1_1" />
<path d="M463.7,1131c0,6.4,-5.2,11.7,-11.7,11.7c-6.4,0,-11.6,-5.3,-11.6,-11.7c0,-6.4,5.2,-11.6,11.6,-11.6c6.5,0,11.7,5.2,11.7,11.6Z" class="g1_1" />
<path d="M678.9,1269.1c0,6.4,-5.2,11.6,-11.7,11.6c-6.4,0,-11.6,-5.2,-11.6,-11.6c0,-6.4,5.2,-11.7,11.6,-11.7c6.5,0,11.7,5.3,11.7,11.7Z" class="g3_1" />
<path d="M666.3,1315.7c0,6.4,-5.2,11.7,-11.6,11.7c-6.5,0,-11.7,-5.3,-11.7,-11.7c0,-6.4,5.2,-11.7,11.7,-11.7c6.4,0,11.6,5.3,11.6,11.7Z" class="g3_1" />
<path d="M506.7,1281.6c0,6.5,-5.2,11.7,-11.6,11.7c-6.4,0,-11.7,-5.2,-11.7,-11.7c0,-6.4,5.3,-11.6,11.7,-11.6c6.4,0,11.6,5.2,11.6,11.6Z" class="g4_1" />
<path d="M490.6,1211.7c0,6.4,-5.2,11.7,-11.7,11.7c-6.4,0,-11.6,-5.3,-11.6,-11.7c0,-6.4,5.2,-11.7,11.6,-11.7c6.5,0,11.7,5.3,11.7,11.7Z" class="g3_1" />
<path d="M759.6,342c0,6.5,-5.2,11.7,-11.7,11.7c-6.4,0,-11.6,-5.2,-11.6,-11.7c0,-6.4,5.2,-11.6,11.6,-11.6c6.5,0,11.7,5.2,11.7,11.6Z" class="g1_1" />
<path d="M947.8,1209.9c0,6.4,-5.2,11.7,-11.6,11.7c-6.4,0,-11.7,-5.3,-11.7,-11.7c0,-6.4,5.3,-11.6,11.7,-11.6c6.4,0,11.6,5.2,11.6,11.6Z" class="g2_1" />
<path d="M969.4,1281.6c0,6.5,-5.2,11.7,-11.7,11.7c-6.4,0,-11.6,-5.2,-11.6,-11.7c0,-6.4,5.2,-11.6,11.6,-11.6c6.5,0,11.7,5.2,11.7,11.6Z" class="g2_1" />
<path d="M1186.3,966c0,6.5,-5.2,11.7,-11.6,11.7c-6.5,0,-11.7,-5.2,-11.7,-11.7c0,-6.4,5.2,-11.6,11.7,-11.6c6.4,0,11.6,5.2,11.6,11.6Z" class="g2_1" />
<path d="M1415.8,924.8c0,6.4,-5.2,11.7,-11.6,11.7c-6.4,0,-11.7,-5.3,-11.7,-11.7c0,-6.4,5.3,-11.7,11.7,-11.7c6.4,0,11.6,5.3,11.6,11.7Z" class="g3_1" />
<path d="M1173.8,1152.5c0,6.5,-5.2,11.7,-11.7,11.7c-6.4,0,-11.6,-5.2,-11.6,-11.7c0,-6.4,5.2,-11.6,11.6,-11.6c6.5,0,11.7,5.2,11.7,11.6Z" class="g3_1" />
<path d="M1050.1,885.4c0,6.4,-5.3,11.6,-11.7,11.6c-6.4,0,-11.7,-5.2,-11.7,-11.6c0,-6.5,5.3,-11.7,11.7,-11.7c6.4,0,11.7,5.2,11.7,11.7Z" class="g1_1" />
<path d="M834.9,1120.3c0,6.4,-5.2,11.6,-11.7,11.6c-6.4,0,-11.6,-5.2,-11.6,-11.6c0,-6.5,5.2,-11.7,11.6,-11.7c6.5,0,11.7,5.2,11.7,11.7Z" class="g4_1" />
<path d="M634.1,1235c0,6.4,-5.3,11.7,-11.7,11.7c-6.4,0,-11.7,-5.3,-11.7,-11.7c0,-6.4,5.3,-11.6,11.7,-11.6c6.4,0,11.7,5.2,11.7,11.6Z" class="g1_1" />
<path d="M838.5,1068.3c0,6.4,-5.2,11.6,-11.7,11.6c-6.4,0,-11.6,-5.2,-11.6,-11.6c0,-6.5,5.2,-11.7,11.6,-11.7c6.5,0,11.7,5.2,11.7,11.7Z" class="g3_1" />
<path d="M1048.3,1057.5c0,6.4,-5.2,11.7,-11.7,11.7c-6.4,0,-11.7,-5.3,-11.7,-11.7c0,-6.4,5.3,-11.7,11.7,-11.7c6.5,0,11.7,5.3,11.7,11.7Z" class="g2_1" />
<path d="M987.3,984c0,6.4,-5.2,11.6,-11.7,11.6C969.2,995.6,964,990.4,964,984c0,-6.4,5.2,-11.7,11.6,-11.7c6.5,0,11.7,5.3,11.7,11.7Z" class="g3_1" />
<path d="M906.6,1310.3c0,6.4,-5.2,11.7,-11.7,11.7c-6.4,0,-11.6,-5.3,-11.6,-11.7c0,-6.4,5.2,-11.6,11.6,-11.6c6.5,0,11.7,5.2,11.7,11.6Z" class="g2_1" />
<path d="M1188.1,1285.2c0,6.4,-5.2,11.7,-11.6,11.7c-6.5,0,-11.7,-5.3,-11.7,-11.7c0,-6.4,5.2,-11.6,11.7,-11.6c6.4,0,11.6,5.2,11.6,11.6Z" class="g2_1" />
<path d="M1396.1,1001.9c0,6.4,-5.2,11.7,-11.6,11.7c-6.5,0,-11.7,-5.3,-11.7,-11.7c0,-6.4,5.2,-11.7,11.7,-11.7c6.4,0,11.6,5.3,11.6,11.7Z" class="g4_1" />
<path d="M1222.2,657.6c0,6.5,-5.2,11.7,-11.7,11.7c-6.4,0,-11.6,-5.2,-11.6,-11.7c0,-6.4,5.2,-11.6,11.6,-11.6c6.5,0,11.7,5.2,11.7,11.6Z" class="g1_1" />
<path d="M1363.8,616.4c0,6.4,-5.2,11.6,-11.6,11.6c-6.4,0,-11.7,-5.2,-11.7,-11.6c0,-6.5,5.3,-11.7,11.7,-11.7c6.4,0,11.6,5.2,11.6,11.7Z" class="g1_1" />
<path d="M1243.7,598.5c0,6.4,-5.2,11.6,-11.6,11.6c-6.5,0,-11.7,-5.2,-11.7,-11.6c0,-6.5,5.2,-11.7,11.7,-11.7c6.4,0,11.6,5.2,11.6,11.7Z" class="g3_1" />
<path d="M847.4,546.5c0,6.4,-5.2,11.6,-11.6,11.6c-6.5,0,-11.7,-5.2,-11.7,-11.6c0,-6.5,5.2,-11.7,11.7,-11.7c6.4,0,11.6,5.2,11.6,11.7Z" class="g2_1" />
<path d="M861.8,908.7c0,6.4,-5.2,11.6,-11.7,11.6c-6.4,0,-11.6,-5.2,-11.6,-11.6c0,-6.5,5.2,-11.7,11.6,-11.7c6.5,0,11.7,5.2,11.7,11.7Z" class="g4_1" />
<path d="M838.5,854.9c0,6.4,-5.2,11.6,-11.7,11.6c-6.4,0,-11.6,-5.2,-11.6,-11.6c0,-6.5,5.2,-11.7,11.6,-11.7c6.5,0,11.7,5.2,11.7,11.7Z" class="g3_1" />
<path d="M1310.1,1161.5c0,6.4,-5.3,11.7,-11.7,11.7c-6.4,0,-11.7,-5.3,-11.7,-11.7c0,-6.4,5.3,-11.7,11.7,-11.7c6.4,0,11.7,5.3,11.7,11.7Z" class="g4_1" />
<path d="M578.5,605.6c0,6.5,-5.2,11.7,-11.7,11.7c-6.4,0,-11.6,-5.2,-11.6,-11.7c0,-6.4,5.2,-11.6,11.6,-11.6c6.5,0,11.7,5.2,11.7,11.6Z" class="g2_1" />
<path d="M322.1,759.8c0,6.5,-5.3,11.7,-11.7,11.7c-6.4,0,-11.7,-5.2,-11.7,-11.7c0,-6.4,5.3,-11.6,11.7,-11.6c6.4,0,11.7,5.2,11.7,11.6Z" class="g5_1" />
<path d="M374.1,756.3c0,6.4,-5.3,11.6,-11.7,11.6c-6.4,0,-11.7,-5.2,-11.7,-11.6c0,-6.5,5.3,-11.7,11.7,-11.7c6.4,0,11.7,5.2,11.7,11.7Z" class="g1_1" />
<path d="M334.6,1001.9c0,6.4,-5.2,11.7,-11.7,11.7c-6.4,0,-11.6,-5.3,-11.6,-11.7c0,-6.4,5.2,-11.7,11.6,-11.7c6.5,0,11.7,5.3,11.7,11.7Z" class="g2_1" />
<path d="M601.8,512.4c0,6.4,-5.2,11.6,-11.7,11.6c-6.4,0,-11.6,-5.2,-11.6,-11.6c0,-6.4,5.2,-11.7,11.6,-11.7c6.5,0,11.7,5.3,11.7,11.7Z" class="g4_1" />
<path d="M671.7,512.4c0,6.4,-5.2,11.6,-11.7,11.6c-6.4,0,-11.6,-5.2,-11.6,-11.6c0,-6.4,5.2,-11.7,11.6,-11.7c6.5,0,11.7,5.3,11.7,11.7Z" class="g1_1" />
<path d="M522.9,449.6c0,6.5,-5.2,11.7,-11.7,11.7c-6.4,0,-11.6,-5.2,-11.6,-11.7c0,-6.4,5.2,-11.6,11.6,-11.6c6.5,0,11.7,5.2,11.7,11.6Z" class="g2_1" />
<path d="M712.9,725.8c0,6.4,-5.2,11.6,-11.6,11.6c-6.4,0,-11.7,-5.2,-11.7,-11.6c0,-6.5,5.3,-11.7,11.7,-11.7c6.4,0,11.6,5.2,11.6,11.7Z" class="g5_1" />
<path d="M1378.2,741.9c0,6.4,-5.2,11.7,-11.7,11.7c-6.4,0,-11.6,-5.3,-11.6,-11.7c0,-6.4,5.2,-11.7,11.6,-11.7c6.5,0,11.7,5.3,11.7,11.7Z" class="g2_1" />
<path d="M1408.7,817.2c0,6.4,-5.2,11.7,-11.7,11.7c-6.4,0,-11.6,-5.3,-11.6,-11.7c0,-6.4,5.2,-11.6,11.6,-11.6c6.5,0,11.7,5.2,11.7,11.6Z" class="g2_1" />
<path d="M1247.3,537.5c0,6.4,-5.2,11.6,-11.7,11.6c-6.4,0,-11.6,-5.2,-11.6,-11.6c0,-6.4,5.2,-11.7,11.6,-11.7c6.5,0,11.7,5.3,11.7,11.7Z" class="g1_1" />
<path d="M1207.8,512.4c0,6.4,-5.2,11.6,-11.6,11.6c-6.4,0,-11.7,-5.2,-11.7,-11.6c0,-6.4,5.3,-11.7,11.7,-11.7c6.4,0,11.6,5.3,11.6,11.7Z" class="g2_1" />
<path d="M1173.8,607.4c0,6.4,-5.2,11.7,-11.7,11.7c-6.4,0,-11.6,-5.3,-11.6,-11.7c0,-6.4,5.2,-11.6,11.6,-11.6c6.5,0,11.7,5.2,11.7,11.6Z" class="g1_1" />
<path d="M1310.1,846.8c0,12.9,-10.5,23.3,-23.4,23.3c-12.8,0,-23.3,-10.4,-23.3,-23.3c0,-12.9,10.5,-23.3,23.3,-23.3c12.9,0,23.4,10.4,23.4,23.3Z" class="g3_1" />
<path d="M1259.8,1230.5c0,12.9,-10.4,23.3,-23.3,23.3c-12.8,0,-23.3,-10.4,-23.3,-23.3c0,-12.8,10.5,-23.3,23.3,-23.3c12.9,0,23.3,10.5,23.3,23.3Z" class="g2_1" />
<path d="M1143.3,656.7c0,15.9,-12.9,28.7,-28.7,28.7c-15.8,0,-28.7,-12.8,-28.7,-28.7c0,-15.8,12.9,-28.7,28.7,-28.7c15.8,0,28.7,12.9,28.7,28.7Z" class="g3_1" />
<path d="M924.5,857.6c0,15.8,-12.8,28.6,-28.7,28.6c-15.8,0,-28.6,-12.8,-28.6,-28.6c0,-15.9,12.8,-28.7,28.6,-28.7c15.9,0,28.7,12.8,28.7,28.7Z" class="g2_1" />
<path d="M1024.9,1189.3c0,15.8,-12.8,28.7,-28.6,28.7c-15.9,0,-28.7,-12.9,-28.7,-28.7c0,-15.8,12.8,-28.7,28.7,-28.7c15.8,0,28.6,12.9,28.6,28.7Z" class="g3_1" />
<path d="M723.7,1078.1c0,15.9,-12.8,28.7,-28.7,28.7c-15.8,0,-28.7,-12.8,-28.7,-28.7c0,-15.8,12.9,-28.7,28.7,-28.7c15.9,0,28.7,12.9,28.7,28.7Z" class="g4_1" />
<path d="M1315.4,988.5c0,15.8,-12.8,28.6,-28.7,28.6c-15.8,0,-28.6,-12.8,-28.6,-28.6c0,-15.9,12.8,-28.7,28.6,-28.7c15.9,0,28.7,12.8,28.7,28.7Z" class="g4_1" />
<path d="M775.7,1002.8c0,15.8,-12.8,28.7,-28.7,28.7c-15.8,0,-28.7,-12.9,-28.7,-28.7c0,-15.8,12.9,-28.7,28.7,-28.7c15.9,0,28.7,12.9,28.7,28.7Z" class="g5_1" />
<path d="M1360.3,959.8c0,10.9,-8.9,19.7,-19.8,19.7c-10.9,0,-19.7,-8.8,-19.7,-19.7c0,-10.9,8.8,-19.8,19.7,-19.8c10.9,0,19.8,8.9,19.8,19.8Z" class="g2_1" />
<path d="M976.5,393.1c0,10.9,-8.8,19.8,-19.7,19.8c-10.9,0,-19.7,-8.9,-19.7,-19.8c0,-10.8,8.8,-19.7,19.7,-19.7c10.9,0,19.7,8.9,19.7,19.7Z" class="g4_1" />
<path d="M843.8,274.8c0,10.9,-8.8,19.7,-19.7,19.7c-10.9,0,-19.7,-8.8,-19.7,-19.7c0,-10.9,8.8,-19.7,19.7,-19.7c10.9,0,19.7,8.8,19.7,19.7Z" class="g1_1" />
<path d="M1001.6,1108.6c0,10.9,-8.8,19.7,-19.7,19.7c-10.9,0,-19.7,-8.8,-19.7,-19.7c0,-10.9,8.8,-19.7,19.7,-19.7c10.9,0,19.7,8.8,19.7,19.7Z" class="g2_1" />
<path d="M750.6,1295.1c0,10.9,-8.8,19.7,-19.7,19.7c-10.9,0,-19.7,-8.8,-19.7,-19.7c0,-10.9,8.8,-19.8,19.7,-19.8c10.9,0,19.7,8.9,19.7,19.8Z" class="g4_1" />
<path d="M971.2,274.8c0,10.9,-8.9,19.7,-19.8,19.7c-10.9,0,-19.7,-8.8,-19.7,-19.7c0,-10.9,8.8,-19.7,19.7,-19.7c10.9,0,19.8,8.8,19.8,19.7Z" class="g3_1" />
<path d="M1184.5,402.1c0,10.9,-8.8,19.7,-19.7,19.7c-10.9,0,-19.7,-8.8,-19.7,-19.7c0,-10.9,8.8,-19.7,19.7,-19.7c10.9,0,19.7,8.8,19.7,19.7Z" class="g1_1" />
<path d="M1371,663.9c0,10.9,-8.8,19.7,-19.7,19.7c-10.9,0,-19.7,-8.8,-19.7,-19.7c0,-10.9,8.8,-19.7,19.7,-19.7c10.9,0,19.7,8.8,19.7,19.7Z" class="g1_1" />
<path d="M806.2,700.7c0,17.3,-14.1,31.4,-31.4,31.4c-17.3,0,-31.4,-14.1,-31.4,-31.4c0,-17.4,14.1,-31.4,31.4,-31.4c17.3,0,31.4,14,31.4,31.4Z" class="g5_1" />
<path d="M922.7,609.2c0,17.4,-14,31.4,-31.3,31.4C874,640.6,860,626.6,860,609.2c0,-17.3,14,-31.4,31.4,-31.4c17.3,0,31.3,14.1,31.3,31.4Z" class="g4_1" />
<path d="M922.7,1120.3c0,17.3,-14,31.3,-31.3,31.3c-17.4,0,-31.4,-14,-31.4,-31.3c0,-17.4,14,-31.4,31.4,-31.4c17.3,0,31.3,14,31.3,31.4Z" class="g4_1" />
<path d="M858.2,1288.8c0,17.3,-14.1,31.4,-31.4,31.4c-17.3,0,-31.4,-14.1,-31.4,-31.4c0,-17.3,14.1,-31.4,31.4,-31.4c17.3,0,31.4,14.1,31.4,31.4Z" class="g3_1" />
<path d="M1021.4,329.5c0,17.3,-14.1,31.4,-31.4,31.4c-17.3,0,-31.4,-14.1,-31.4,-31.4c0,-17.4,14.1,-31.4,31.4,-31.4c17.3,0,31.4,14,31.4,31.4Z" class="g2_1" />
<path d="M926.3,469.4c0,17.3,-14,31.3,-31.4,31.3c-17.3,0,-31.3,-14,-31.3,-31.3c0,-17.4,14,-31.4,31.3,-31.4c17.4,0,31.4,14,31.4,31.4Z" class="g3_1" />
<path d="M519.3,960.7c0,15.3,-12.5,27.8,-27.8,27.8c-15.3,0,-27.8,-12.5,-27.8,-27.8c0,-15.4,12.5,-27.8,27.8,-27.8c15.3,0,27.8,12.4,27.8,27.8Z" class="g4_1" />
<path d="M325.6,944.5c0,15.4,-12.4,27.8,-27.8,27.8c-15.3,0,-27.7,-12.4,-27.7,-27.8c0,-15.3,12.4,-27.8,27.7,-27.8c15.4,0,27.8,12.5,27.8,27.8Z" class="g5_1" />
<path d="M431.4,1166.9c0,15.3,-12.4,27.8,-27.8,27.8c-15.3,0,-27.8,-12.5,-27.8,-27.8c0,-15.4,12.5,-27.8,27.8,-27.8c15.4,0,27.8,12.4,27.8,27.8Z" class="g4_1" />
<path d="M571.3,897c0,10.9,-8.8,19.7,-19.7,19.7c-10.9,0,-19.7,-8.8,-19.7,-19.7c0,-10.9,8.8,-19.7,19.7,-19.7c10.9,0,19.7,8.8,19.7,19.7Z" class="g2_1" />
<path d="M571.3,799.3c0,16.3,-13.3,29.6,-29.6,29.6c-16.3,0,-29.6,-13.3,-29.6,-29.6c0,-16.4,13.3,-29.6,29.6,-29.6c16.3,0,29.6,13.2,29.6,29.6Z" class="g5_1" />
<path d="M413.5,913.1c0,10.9,-8.8,19.8,-19.7,19.8c-10.9,0,-19.7,-8.9,-19.7,-19.8c0,-10.8,8.8,-19.7,19.7,-19.7c10.9,0,19.7,8.9,19.7,19.7Z" class="g2_1" />
<path d="M610.7,961.6c0,10.9,-8.8,19.7,-19.7,19.7c-10.9,0,-19.7,-8.8,-19.7,-19.7c0,-10.9,8.8,-19.8,19.7,-19.8c10.9,0,19.7,8.9,19.7,19.8Z" class="g5_1" />
<path d="M458.3,1047.6c0,10.9,-8.8,19.8,-19.7,19.8c-10.9,0,-19.7,-8.9,-19.7,-19.8c0,-10.9,8.8,-19.7,19.7,-19.7c10.9,0,19.7,8.8,19.7,19.7Z" class="g5_1" />
<path d="M386.6,825.3c0,10.9,-8.8,19.7,-19.7,19.7c-10.9,0,-19.7,-8.8,-19.7,-19.7c0,-10.9,8.8,-19.7,19.7,-19.7c10.9,0,19.7,8.8,19.7,19.7Z" class="g5_1" />
<path d="M445.8,970.5c0,10.9,-8.9,19.8,-19.8,19.8c-10.8,0,-19.7,-8.9,-19.7,-19.8c0,-10.9,8.9,-19.7,19.7,-19.7c10.9,0,19.8,8.8,19.8,19.7Z" class="g5_1" />
<path d="M331,851.3c0,14.3,-11.6,26,-26,26c-14.4,0,-26,-11.7,-26,-26c0,-14.4,11.6,-26,26,-26c14.4,0,26,11.6,26,26Z" class="g4_1" />
<path d="M504.9,867.4c0,14.4,-11.6,26,-25.9,26c-14.4,0,-26.1,-11.6,-26.1,-26c0,-14.3,11.7,-26,26.1,-26c14.3,0,25.9,11.7,25.9,26Z" class="g5_1" />
<path d="M886.9,1388.3c0,10.9,-8.9,19.8,-19.8,19.8c-10.8,0,-19.7,-8.9,-19.7,-19.8c0,-10.9,8.9,-19.7,19.7,-19.7c10.9,0,19.8,8.8,19.8,19.7Z" class="g4_1" />
<path d="M786.5,545.6c0,10.9,-8.9,19.7,-19.8,19.7c-10.9,0,-19.7,-8.8,-19.7,-19.7c0,-10.9,8.8,-19.8,19.7,-19.8c10.9,0,19.8,8.9,19.8,19.8Z" class="g4_1" />
<path d="M752.4,484.6c0,10.9,-8.8,19.7,-19.7,19.7c-10.9,0,-19.7,-8.8,-19.7,-19.7c0,-10.9,8.8,-19.7,19.7,-19.7c10.9,0,19.7,8.8,19.7,19.7Z" class="g3_1" />
<path d="M825.9,606.5c0,10.9,-8.8,19.8,-19.7,19.8c-10.9,0,-19.7,-8.9,-19.7,-19.8c0,-10.9,8.8,-19.7,19.7,-19.7c10.9,0,19.7,8.8,19.7,19.7Z" class="g5_1" />
<path d="M883.3,683.6c0,10.9,-8.8,19.8,-19.7,19.8c-10.9,0,-19.7,-8.9,-19.7,-19.8c0,-10.9,8.8,-19.7,19.7,-19.7c10.9,0,19.7,8.8,19.7,19.7Z" class="g1_1" />
<path d="M1231.2,757.1c0,10.9,-8.9,19.8,-19.8,19.8c-10.9,0,-19.7,-8.9,-19.7,-19.8c0,-10.8,8.8,-19.7,19.7,-19.7c10.9,0,19.8,8.9,19.8,19.7Z" class="g3_1" />
<path d="M1267,929.3c0,10.9,-8.8,19.7,-19.7,19.7c-10.9,0,-19.7,-8.8,-19.7,-19.7c0,-10.9,8.8,-19.7,19.7,-19.7c10.9,0,19.7,8.8,19.7,19.7Z" class="g2_1" />
<path d="M686.1,572.5c0,10.9,-8.9,19.7,-19.8,19.7c-10.9,0,-19.7,-8.8,-19.7,-19.7c0,-10.9,8.8,-19.8,19.7,-19.8c10.9,0,19.8,8.9,19.8,19.8Z" class="g4_1" />
<path d="M766.7,420c0,10.9,-8.8,19.8,-19.7,19.8c-10.9,0,-19.7,-8.9,-19.7,-19.8c0,-10.9,8.8,-19.7,19.7,-19.7c10.9,0,19.7,8.8,19.7,19.7Z" class="g2_1" />
<path d="M719.5,336.9c0,10.9,-8.8,19.7,-19.7,19.7c-10.9,0,-19.7,-8.8,-19.7,-19.7c0,-10.9,8.8,-19.7,19.7,-19.7c10.9,0,19.7,8.8,19.7,19.7Z" class="g3_1" />
<path d="M470.9,430.8c0,10.9,-8.9,19.7,-19.8,19.7c-10.8,0,-19.7,-8.8,-19.7,-19.7c0,-10.9,8.9,-19.7,19.7,-19.7c10.9,0,19.8,8.8,19.8,19.7Z" class="g4_1" />
<path d="M1231.2,450.5c0,10.9,-8.9,19.8,-19.8,19.8c-10.9,0,-19.7,-8.9,-19.7,-19.8c0,-10.9,8.8,-19.7,19.7,-19.7c10.9,0,19.8,8.8,19.8,19.7Z" class="g4_1" />
<path d="M1109.2,1180.3c0,10.9,-8.8,19.8,-19.7,19.8c-10.9,0,-19.7,-8.9,-19.7,-19.8c0,-10.9,8.8,-19.7,19.7,-19.7c10.9,0,19.7,8.8,19.7,19.7Z" class="g2_1" />
<path d="M1075.2,1105c0,10.9,-8.9,19.7,-19.8,19.7c-10.9,0,-19.7,-8.8,-19.7,-19.7c0,-10.9,8.8,-19.7,19.7,-19.7c10.9,0,19.8,8.8,19.8,19.7Z" class="g3_1" />
<path d="M831.3,1361.4c0,10.9,-8.8,19.8,-19.7,19.8c-10.9,0,-19.7,-8.9,-19.7,-19.8c0,-10.9,8.8,-19.7,19.7,-19.7c10.9,0,19.7,8.8,19.7,19.7Z" class="g4_1" />

</g>
</svg>
